<svg width="20" height="20" viewBox="0 0 20 20" fill="none" xmlns="http://www.w3.org/2000/svg">
<path d="M17.8125 0H1.3125C0.964403 0 0.630564 0.138281 0.384422 0.384422C0.138281 0.630564 0 0.964403 0 1.3125V17.8125C0 18.1606 0.138281 18.4944 0.384422 18.7406C0.630564 18.9867 0.964403 19.125 1.3125 19.125H17.8125C18.1606 19.125 18.4944 18.9867 18.7406 18.7406C18.9867 18.4944 19.125 18.1606 19.125 17.8125V1.3125C19.125 0.964403 18.9867 0.630564 18.7406 0.384422C18.4944 0.138281 18.1606 0 17.8125 0ZM18 17.8125C18 17.8622 17.9802 17.9099 17.9451 17.9451C17.9099 17.9802 17.8622 18 17.8125 18H1.3125C1.26277 18 1.21508 17.9802 1.17992 17.9451C1.14475 17.9099 1.125 17.8622 1.125 17.8125V1.3125C1.125 1.26277 1.14475 1.21508 1.17992 1.17992C1.21508 1.14475 1.26277 1.125 1.3125 1.125H17.8125C17.8622 1.125 17.9099 1.14475 17.9451 1.17992C17.9802 1.21508 18 1.26277 18 1.3125V17.8125ZM6.375 8.0625V14.0625C6.375 14.2117 6.31574 14.3548 6.21025 14.4602C6.10476 14.5657 5.96168 14.625 5.8125 14.625C5.66332 14.625 5.52024 14.5657 5.41475 14.4602C5.30926 14.3548 5.25 14.2117 5.25 14.0625V8.0625C5.25 7.91332 5.30926 7.77024 5.41475 7.66475C5.52024 7.55926 5.66332 7.5 5.8125 7.5C5.96168 7.5 6.10476 7.55926 6.21025 7.66475C6.31574 7.77024 6.375 7.91332 6.375 8.0625ZM14.625 10.6875V14.0625C14.625 14.2117 14.5657 14.3548 14.4602 14.4602C14.3548 14.5657 14.2117 14.625 14.0625 14.625C13.9133 14.625 13.7702 14.5657 13.6648 14.4602C13.5593 14.3548 13.5 14.2117 13.5 14.0625V10.6875C13.5 10.1405 13.2827 9.61589 12.8959 9.22909C12.5091 8.8423 11.9845 8.625 11.4375 8.625C10.8905 8.625 10.3659 8.8423 9.97909 9.22909C9.5923 9.61589 9.375 10.1405 9.375 10.6875V14.0625C9.375 14.2117 9.31574 14.3548 9.21025 14.4602C9.10476 14.5657 8.96168 14.625 8.8125 14.625C8.66332 14.625 8.52024 14.5657 8.41475 14.4602C8.30926 14.3548 8.25 14.2117 8.25 14.0625V8.0625C8.25 7.91332 8.30926 7.77024 8.41475 7.66475C8.52024 7.55926 8.66332 7.5 8.8125 7.5C8.96168 7.5 9.10476 7.55926 9.21025 7.66475C9.31574 7.77024 9.375 7.91332 9.375 8.0625V8.26031C9.83857 7.86689 10.405 7.61427 11.0074 7.53223C11.6099 7.4502 12.2232 7.54218 12.7751 7.79733C13.327 8.05248 13.7944 8.46015 14.1222 8.97224C14.4499 9.48433 14.6244 10.0795 14.625 10.6875ZM6.75 5.4375C6.75 5.62292 6.69502 5.80418 6.592 5.95835C6.48899 6.11252 6.34257 6.23268 6.17127 6.30364C5.99996 6.37459 5.81146 6.39316 5.6296 6.35699C5.44775 6.32081 5.2807 6.23152 5.14959 6.10041C5.01848 5.9693 4.92919 5.80225 4.89301 5.6204C4.85684 5.43854 4.87541 5.25004 4.94636 5.07873C5.01732 4.90743 5.13748 4.76101 5.29165 4.658C5.44582 4.55498 5.62708 4.5 5.8125 4.5C6.06114 4.5 6.2996 4.59877 6.47541 4.77459C6.65123 4.9504 6.75 5.18886 6.75 5.4375Z" fill="#362C11"/>
</svg>
