<svg width="15" height="18" viewBox="0 0 15 18" fill="none" xmlns="http://www.w3.org/2000/svg">
<path d="M14.446 7.7095C14.3405 7.81484 14.1975 7.87401 14.0485 7.87401C13.8994 7.87401 13.7564 7.81484 13.651 7.7095L7.86097 1.92044V17.062C7.86097 17.2112 7.80171 17.3543 7.69622 17.4598C7.59073 17.5652 7.44765 17.6245 7.29847 17.6245C7.14928 17.6245 7.00621 17.5652 6.90072 17.4598C6.79523 17.3543 6.73597 17.2112 6.73597 17.062V1.92044L0.945969 7.7095C0.839338 7.80886 0.698303 7.86296 0.552577 7.86039C0.406851 7.85781 0.267812 7.79878 0.164752 7.69572C0.0616926 7.59266 0.0026588 7.45362 8.76355e-05 7.3079C-0.00248353 7.16217 0.0516087 7.02114 0.150969 6.9145L6.90097 0.164505C7.00644 0.059167 7.14941 0 7.29847 0C7.44753 0 7.5905 0.059167 7.69597 0.164505L14.446 6.9145C14.5513 7.01997 14.6105 7.16294 14.6105 7.312C14.6105 7.46107 14.5513 7.60404 14.446 7.7095Z" fill="#362C11"/>
</svg>
