<svg width="20" height="20" viewBox="0 0 20 20" fill="none" xmlns="http://www.w3.org/2000/svg">
<path d="M9.5625 0C7.67122 0 5.82241 0.560831 4.24986 1.61157C2.67732 2.66231 1.45167 4.15577 0.727906 5.90309C0.00414312 7.65041 -0.185226 9.57311 0.183745 11.4281C0.552716 13.283 1.46346 14.9869 2.8008 16.3242C4.13814 17.6615 5.84201 18.5723 7.69695 18.9413C9.5519 19.3102 11.4746 19.1209 13.2219 18.3971C14.9692 17.6733 16.4627 16.4477 17.5134 14.8751C18.5642 13.3026 19.125 11.4538 19.125 9.5625C19.122 7.02728 18.1136 4.59675 16.3209 2.80408C14.5283 1.01141 12.0977 0.00297736 9.5625 0ZM17.9813 9H13.8647C13.7203 5.17781 12.1322 2.60344 11.0119 1.24969C12.8724 1.57728 14.5696 2.51852 15.8328 3.92324C17.096 5.32797 17.8524 7.11526 17.9813 9ZM9.5625 17.7966C9.02092 17.2441 8.54323 16.6324 8.13844 15.9731C7.06176 14.2067 6.4586 12.1925 6.38719 10.125H12.7378C12.6664 12.1925 12.0633 14.2067 10.9866 15.9731C10.5818 16.6324 10.1041 17.2441 9.5625 17.7966ZM6.38719 9C6.4586 6.93251 7.06176 4.91833 8.13844 3.15188C8.54323 2.49257 9.02092 1.88091 9.5625 1.32844C10.1041 1.88091 10.5818 2.49257 10.9866 3.15188C12.0633 4.91833 12.6664 6.93251 12.7378 9H6.38719ZM8.11313 1.24969C6.98813 2.60344 5.40469 5.17781 5.26032 9H1.14375C1.27265 7.11526 2.02902 5.32797 3.2922 3.92324C4.55538 2.51852 6.2526 1.57728 8.11313 1.24969ZM1.14375 10.125H5.26032C5.40469 13.9472 6.99282 16.5216 8.11313 17.8753C6.2526 17.5477 4.55538 16.6065 3.2922 15.2018C2.02902 13.797 1.27265 12.0097 1.14375 10.125ZM11.0119 17.8753C12.1322 16.5216 13.7203 13.9472 13.8647 10.125H17.9813C17.8524 12.0097 17.096 13.797 15.8328 15.2018C14.5696 16.6065 12.8724 17.5477 11.0119 17.8753Z" fill="#362C11"/>
</svg>
