<svg width="15" height="15" viewBox="0 0 15 15" fill="none" xmlns="http://www.w3.org/2000/svg">
<path d="M7.17188 0C5.75342 0 4.36681 0.420623 3.1874 1.20868C2.00799 1.99673 1.08875 3.11683 0.54593 4.42732C0.00310734 5.73781 -0.13892 7.17983 0.137809 8.57104C0.414537 9.96225 1.09759 11.2402 2.1006 12.2432C3.1036 13.2462 4.38151 13.9292 5.77271 14.2059C7.16392 14.4827 8.60595 14.3406 9.91644 13.7978C11.2269 13.255 12.347 12.3358 13.1351 11.1564C13.9231 9.97695 14.3438 8.59034 14.3438 7.17188C14.3415 5.27046 13.5852 3.44756 12.2407 2.10306C10.8962 0.758556 9.07329 0.00223302 7.17188 0ZM7.17188 13.5C5.92029 13.5 4.69682 13.1289 3.65616 12.4335C2.61551 11.7382 1.80441 10.7499 1.32545 9.59354C0.846492 8.43723 0.721174 7.16486 0.965346 5.93732C1.20952 4.70978 1.81221 3.58222 2.69722 2.69721C3.58222 1.81221 4.70979 1.20952 5.93732 0.965343C7.16486 0.721171 8.43723 0.846489 9.59355 1.32545C10.7499 1.80441 11.7382 2.6155 12.4335 3.65616C13.1289 4.69681 13.5 5.92029 13.5 7.17188C13.4981 8.84963 12.8308 10.4581 11.6445 11.6445C10.4581 12.8308 8.84963 13.4981 7.17188 13.5ZM9.84375 4.92188V8.29688C9.84375 8.40876 9.79931 8.51607 9.72019 8.59519C9.64107 8.6743 9.53377 8.71875 9.42188 8.71875C9.30999 8.71875 9.20268 8.6743 9.12357 8.59519C9.04445 8.51607 9 8.40876 9 8.29688V5.9407L5.22 9.72C5.14003 9.79452 5.03425 9.83509 4.92496 9.83316C4.81567 9.83123 4.71139 9.78696 4.63409 9.70966C4.5568 9.63237 4.51252 9.52809 4.51059 9.41879C4.50866 9.3095 4.54923 9.20372 4.62375 9.12375L8.40305 5.34375H6.04688C5.93499 5.34375 5.82768 5.2993 5.74857 5.22019C5.66945 5.14107 5.625 5.03376 5.625 4.92188C5.625 4.80999 5.66945 4.70268 5.74857 4.62356C5.82768 4.54445 5.93499 4.5 6.04688 4.5H9.42188C9.53377 4.5 9.64107 4.54445 9.72019 4.62356C9.79931 4.70268 9.84375 4.80999 9.84375 4.92188Z" fill="#362C11"/>
</svg>
