<svg width="20" height="24" viewBox="0 0 20 24" fill="none" xmlns="http://www.w3.org/2000/svg">
<path d="M19.2613 14.28L10.2613 23.28C10.1207 23.4205 9.93004 23.4993 9.73129 23.4993C9.53254 23.4993 9.34192 23.4205 9.20129 23.28L0.201292 14.28C0.0688116 14.1378 -0.00331137 13.9498 0.000116847 13.7555C0.00354506 13.5612 0.0822568 13.3758 0.21967 13.2384C0.357083 13.101 0.542468 13.0223 0.736769 13.0188C0.93107 13.0154 1.11912 13.0875 1.26129 13.22L8.98129 20.9387V0.75C8.98129 0.551088 9.06031 0.360322 9.20096 0.21967C9.34161 0.0790175 9.53238 0 9.73129 0C9.9302 0 10.121 0.0790175 10.2616 0.21967C10.4023 0.360322 10.4813 0.551088 10.4813 0.75V20.9387L18.2013 13.22C18.3435 13.0875 18.5315 13.0154 18.7258 13.0188C18.9201 13.0223 19.1055 13.101 19.2429 13.2384C19.3803 13.3758 19.459 13.5612 19.4625 13.7555C19.4659 13.9498 19.3938 14.1378 19.2613 14.28Z" fill="#362C11"/>
</svg>
