<svg width="196" height="196" viewBox="0 0 196 196" fill="none" xmlns="http://www.w3.org/2000/svg">
<rect width="196" height="196" rx="98" fill="#E9F1E9"/>
<g clip-path="url(#clip0_2511_8549)">
<path d="M137.212 77.8201C138.869 75.063 141.557 58.1276 131.837 61.7061C125.161 64.1618 128.636 75.0246 130.037 77.0902C131.439 79.1558 135.555 80.5772 137.215 77.8171L137.212 77.8201Z" fill="#362C11"/>
<path d="M139.134 104.045C134.941 102.535 128.583 104.728 126.724 108.697C126.056 110.118 125.661 111.962 126.578 113.617C127.496 115.272 129.604 114.973 131.146 114.846C133.088 114.684 135.547 112.095 137.135 113.037C138.724 113.98 139.443 122.993 137.988 128.123C136.8 132.311 131.576 136.099 127.05 136.253C121.96 136.427 115.252 134.317 112.737 129.822C109.066 123.268 108.742 118.046 109.001 111.108C109.173 106.536 109.087 99.1753 111.959 96.2321C114.83 93.2889 148.987 94.5566 149.765 93.2682C150.543 91.9798 148.637 89.403 144.687 87.8427C141.94 86.7582 136.761 87.0478 134.578 87.1748C130.124 87.4378 125.607 87.6654 121.179 87.231C115.757 86.6991 111.641 86.8232 109.794 84.2966C109.033 83.2535 108.594 77.8191 107.406 72.1306C105.924 65.0207 105.262 59.5184 103.462 57.4174C101.663 55.3163 97.1577 54.9321 93.9059 55.009C83.5893 55.2542 63.1312 55.9014 63.1312 55.9014C63.1312 55.9014 57.1355 55.8778 54.7508 60.1183C52.3662 64.3558 47.0772 97.6564 47 116.652C47 116.663 47 116.675 47 116.684C47 116.903 47.0267 120.798 47.9592 124.37C48.8887 127.94 51.2852 132.411 54.9409 135.384C58.5966 138.356 61.8988 139.095 67.1314 139.875C79.6782 141.743 97.8081 140.998 97.8081 137.547C97.8081 134.095 84.005 135.416 76.0671 134.361C68.1292 133.306 59.5647 131.057 56.8652 120.062C55.2497 113.472 56.5831 110.068 59.8587 105.697C63.1342 101.327 72.2927 101.489 80.5216 101.46C88.7506 101.43 95.86 102.042 97.1815 102.559C98.503 103.076 99.8393 104.294 100.018 108.206C100.196 112.118 99.9136 115.49 100.398 120.325C100.882 125.159 102.337 129.819 105.393 134.441C108.448 139.063 115.632 141.025 121.378 141.775C130.198 142.925 138.249 139.524 142.261 136.016C146.273 132.506 149.412 128.037 149.932 123.212C150.451 118.386 148.034 107.254 139.134 104.048V104.045ZM64.2894 67.2814C67.9867 65.331 90.4878 64.5036 93.603 65.3458C97.8764 66.5012 99.6047 84.9644 98.4673 89.069C97.3299 93.1736 63.7727 93.936 59.823 90.0058C55.8734 86.0755 60.5922 69.2317 64.2894 67.2814Z" fill="#362C11"/>
</g>
<defs>
<clipPath id="clip0_2511_8549">
<rect width="103" height="87" fill="white" transform="translate(47 55)"/>
</clipPath>
</defs>
</svg>
