<svg width="22" height="22" viewBox="0 0 22 22" fill="none" xmlns="http://www.w3.org/2000/svg">
<path d="M9.26129 16.22C9.40174 16.3606 9.48063 16.5512 9.48063 16.75C9.48063 16.9488 9.40174 17.1394 9.26129 17.28L5.26129 21.28C5.12067 21.4205 4.93004 21.4993 4.73129 21.4993C4.53254 21.4993 4.34192 21.4205 4.20129 21.28L0.201292 17.28C0.0688116 17.1378 -0.00331137 16.9498 0.000116847 16.7555C0.00354506 16.5612 0.0822568 16.3758 0.21967 16.2384C0.357083 16.101 0.542468 16.0223 0.736769 16.0188C0.93107 16.0154 1.11912 16.0875 1.26129 16.22L3.98129 18.9387V0.75C3.98129 0.551088 4.06031 0.360322 4.20096 0.21967C4.34161 0.0790175 4.53238 0 4.73129 0C4.9302 0 5.12097 0.0790175 5.26162 0.21967C5.40227 0.360322 5.48129 0.551088 5.48129 0.75V18.9387L8.20129 16.22C8.34192 16.0795 8.53254 16.0007 8.73129 16.0007C8.93004 16.0007 9.12067 16.0795 9.26129 16.22ZM21.2613 4.22L17.2613 0.22C17.1207 0.0795493 16.93 0.000659943 16.7313 0.000659943C16.5325 0.000659943 16.3419 0.0795493 16.2013 0.22L12.2013 4.22C12.0688 4.36217 11.9967 4.55022 12.0001 4.74452C12.0035 4.93882 12.0823 5.12421 12.2197 5.26162C12.3571 5.39903 12.5425 5.47775 12.7368 5.48118C12.9311 5.4846 13.1191 5.41248 13.2613 5.28L15.9813 2.56125V20.75C15.9813 20.9489 16.0603 21.1397 16.201 21.2803C16.3416 21.421 16.5324 21.5 16.7313 21.5C16.9302 21.5 17.121 21.421 17.2616 21.2803C17.4023 21.1397 17.4813 20.9489 17.4813 20.75V2.56125L20.2013 5.28C20.3435 5.41248 20.5315 5.4846 20.7258 5.48118C20.9201 5.47775 21.1055 5.39903 21.2429 5.26162C21.3803 5.12421 21.459 4.93882 21.4625 4.74452C21.4659 4.55022 21.3938 4.36217 21.2613 4.22Z" fill="#362C11"/>
</svg>
