<svg width="22" height="22" viewBox="0 0 22 22" fill="none" xmlns="http://www.w3.org/2000/svg">
<path d="M7.75 0H1.75C1.28587 0 0.840752 0.184375 0.512563 0.512563C0.184375 0.840752 0 1.28587 0 1.75V7.75C0 7.97981 0.0452649 8.20738 0.133211 8.4197C0.221156 8.63202 0.350061 8.82493 0.512563 8.98744C0.675066 9.14994 0.867984 9.27884 1.0803 9.36679C1.29262 9.45473 1.52019 9.5 1.75 9.5H7.75C7.97981 9.5 8.20738 9.45473 8.4197 9.36679C8.63202 9.27884 8.82493 9.14994 8.98744 8.98744C9.14994 8.82493 9.27884 8.63202 9.36679 8.4197C9.45473 8.20738 9.5 7.97981 9.5 7.75V1.75C9.5 1.52019 9.45473 1.29262 9.36679 1.0803C9.27884 0.867984 9.14994 0.675066 8.98744 0.512563C8.82493 0.350061 8.63202 0.221156 8.4197 0.133211C8.20738 0.0452649 7.97981 0 7.75 0ZM8 7.75C8 7.8163 7.97366 7.87989 7.92678 7.92678C7.87989 7.97366 7.8163 8 7.75 8H1.75C1.6837 8 1.62011 7.97366 1.57322 7.92678C1.52634 7.87989 1.5 7.8163 1.5 7.75V1.75C1.5 1.6837 1.52634 1.62011 1.57322 1.57322C1.62011 1.52634 1.6837 1.5 1.75 1.5H7.75C7.8163 1.5 7.87989 1.52634 7.92678 1.57322C7.97366 1.62011 8 1.6837 8 1.75V7.75ZM19.75 0H13.75C13.2859 0 12.8408 0.184375 12.5126 0.512563C12.1844 0.840752 12 1.28587 12 1.75V7.75C12 7.97981 12.0453 8.20738 12.1332 8.4197C12.2212 8.63202 12.3501 8.82493 12.5126 8.98744C12.6751 9.14994 12.868 9.27884 13.0803 9.36679C13.2926 9.45473 13.5202 9.5 13.75 9.5H19.75C19.9798 9.5 20.2074 9.45473 20.4197 9.36679C20.632 9.27884 20.8249 9.14994 20.9874 8.98744C21.1499 8.82493 21.2788 8.63202 21.3668 8.4197C21.4547 8.20738 21.5 7.97981 21.5 7.75V1.75C21.5 1.28587 21.3156 0.840752 20.9874 0.512563C20.6592 0.184375 20.2141 0 19.75 0ZM20 7.75C20 7.8163 19.9737 7.87989 19.9268 7.92678C19.8799 7.97366 19.8163 8 19.75 8H13.75C13.6837 8 13.6201 7.97366 13.5732 7.92678C13.5263 7.87989 13.5 7.8163 13.5 7.75V1.75C13.5 1.6837 13.5263 1.62011 13.5732 1.57322C13.6201 1.52634 13.6837 1.5 13.75 1.5H19.75C19.8163 1.5 19.8799 1.52634 19.9268 1.57322C19.9737 1.62011 20 1.6837 20 1.75V7.75ZM7.75 12H1.75C1.28587 12 0.840752 12.1844 0.512563 12.5126C0.184375 12.8408 0 13.2859 0 13.75V19.75C0 20.2141 0.184375 20.6592 0.512563 20.9874C0.840752 21.3156 1.28587 21.5 1.75 21.5H7.75C7.97981 21.5 8.20738 21.4547 8.4197 21.3668C8.63202 21.2788 8.82493 21.1499 8.98744 20.9874C9.14994 20.8249 9.27884 20.632 9.36679 20.4197C9.45473 20.2074 9.5 19.9798 9.5 19.75V13.75C9.5 13.5202 9.45473 13.2926 9.36679 13.0803C9.27884 12.868 9.14994 12.6751 8.98744 12.5126C8.82493 12.3501 8.63202 12.2212 8.4197 12.1332C8.20738 12.0453 7.97981 12 7.75 12ZM8 19.75C8 19.8163 7.97366 19.8799 7.92678 19.9268C7.87989 19.9737 7.8163 20 7.75 20H1.75C1.6837 20 1.62011 19.9737 1.57322 19.9268C1.52634 19.8799 1.5 19.8163 1.5 19.75V13.75C1.5 13.6837 1.52634 13.6201 1.57322 13.5732C1.62011 13.5263 1.6837 13.5 1.75 13.5H7.75C7.8163 13.5 7.87989 13.5263 7.92678 13.5732C7.97366 13.6201 8 13.6837 8 13.75V19.75ZM19.75 12H13.75C13.2859 12 12.8408 12.1844 12.5126 12.5126C12.1844 12.8408 12 13.2859 12 13.75V19.75C12 20.2141 12.1844 20.6592 12.5126 20.9874C12.8408 21.3156 13.2859 21.5 13.75 21.5H19.75C20.2141 21.5 20.6592 21.3156 20.9874 20.9874C21.3156 20.6592 21.5 20.2141 21.5 19.75V13.75C21.5 13.2859 21.3156 12.8408 20.9874 12.5126C20.6592 12.1844 20.2141 12 19.75 12ZM20 19.75C20 19.8163 19.9737 19.8799 19.9268 19.9268C19.8799 19.9737 19.8163 20 19.75 20H13.75C13.6837 20 13.6201 19.9737 13.5732 19.9268C13.5263 19.8799 13.5 19.8163 13.5 19.75V13.75C13.5 13.6837 13.5263 13.6201 13.5732 13.5732C13.6201 13.5263 13.6837 13.5 13.75 13.5H19.75C19.8163 13.5 19.8799 13.5263 19.9268 13.5732C19.9737 13.6201 20 13.6837 20 13.75V19.75Z" fill="#362C11"/>
</svg>
