<svg width="11" height="11" viewBox="0 0 11 11" fill="none" xmlns="http://www.w3.org/2000/svg">
<path d="M10.9258 0.46875V8.59375C10.9258 8.71807 10.8764 8.8373 10.7885 8.92521C10.7006 9.01311 10.5814 9.0625 10.4571 9.0625C10.3327 9.0625 10.2135 9.01311 10.1256 8.92521C10.0377 8.8373 9.98831 8.71807 9.98831 8.59375V1.6L0.788307 10.8C0.699448 10.8828 0.581919 10.9279 0.460481 10.9257C0.339043 10.9236 0.223177 10.8744 0.137294 10.7885C0.0514105 10.7026 0.00221566 10.5868 7.30296e-05 10.4653C-0.00206961 10.3439 0.0430072 10.2264 0.125807 10.1375L9.32581 0.9375H2.33206C2.20774 0.9375 2.08851 0.888114 2.0006 0.800206C1.91269 0.712298 1.86331 0.59307 1.86331 0.46875C1.86331 0.34443 1.91269 0.225201 2.0006 0.137294C2.08851 0.049386 2.20774 0 2.33206 0H10.4571C10.5814 0 10.7006 0.049386 10.7885 0.137294C10.8764 0.225201 10.9258 0.34443 10.9258 0.46875Z" fill="#362C11"/>
</svg>
