<svg width="24" height="18" viewBox="0 0 24 18" fill="none" xmlns="http://www.w3.org/2000/svg">
<path d="M7 0.75C7 0.551088 7.07902 0.360322 7.21967 0.21967C7.36032 0.0790175 7.55109 0 7.75 0H22.75C22.9489 0 23.1397 0.0790175 23.2803 0.21967C23.421 0.360322 23.5 0.551088 23.5 0.75C23.5 0.948912 23.421 1.13968 23.2803 1.28033C23.1397 1.42098 22.9489 1.5 22.75 1.5H7.75C7.55109 1.5 7.36032 1.42098 7.21967 1.28033C7.07902 1.13968 7 0.948912 7 0.75ZM22.75 8H7.75C7.55109 8 7.36032 8.07902 7.21967 8.21967C7.07902 8.36032 7 8.55109 7 8.75C7 8.94891 7.07902 9.13968 7.21967 9.28033C7.36032 9.42098 7.55109 9.5 7.75 9.5H22.75C22.9489 9.5 23.1397 9.42098 23.2803 9.28033C23.421 9.13968 23.5 8.94891 23.5 8.75C23.5 8.55109 23.421 8.36032 23.2803 8.21967C23.1397 8.07902 22.9489 8 22.75 8ZM22.75 16H7.75C7.55109 16 7.36032 16.079 7.21967 16.2197C7.07902 16.3603 7 16.5511 7 16.75C7 16.9489 7.07902 17.1397 7.21967 17.2803C7.36032 17.421 7.55109 17.5 7.75 17.5H22.75C22.9489 17.5 23.1397 17.421 23.2803 17.2803C23.421 17.1397 23.5 16.9489 23.5 16.75C23.5 16.5511 23.421 16.3603 23.2803 16.2197C23.1397 16.079 22.9489 16 22.75 16ZM2.75 0H0.75C0.551088 0 0.360322 0.0790175 0.21967 0.21967C0.0790175 0.360322 0 0.551088 0 0.75C0 0.948912 0.0790175 1.13968 0.21967 1.28033C0.360322 1.42098 0.551088 1.5 0.75 1.5H2.75C2.94891 1.5 3.13968 1.42098 3.28033 1.28033C3.42098 1.13968 3.5 0.948912 3.5 0.75C3.5 0.551088 3.42098 0.360322 3.28033 0.21967C3.13968 0.0790175 2.94891 0 2.75 0ZM2.75 8H0.75C0.551088 8 0.360322 8.07902 0.21967 8.21967C0.0790175 8.36032 0 8.55109 0 8.75C0 8.94891 0.0790175 9.13968 0.21967 9.28033C0.360322 9.42098 0.551088 9.5 0.75 9.5H2.75C2.94891 9.5 3.13968 9.42098 3.28033 9.28033C3.42098 9.13968 3.5 8.94891 3.5 8.75C3.5 8.55109 3.42098 8.36032 3.28033 8.21967C3.13968 8.07902 2.94891 8 2.75 8ZM2.75 16H0.75C0.551088 16 0.360322 16.079 0.21967 16.2197C0.0790175 16.3603 0 16.5511 0 16.75C0 16.9489 0.0790175 17.1397 0.21967 17.2803C0.360322 17.421 0.551088 17.5 0.75 17.5H2.75C2.94891 17.5 3.13968 17.421 3.28033 17.2803C3.42098 17.1397 3.5 16.9489 3.5 16.75C3.5 16.5511 3.42098 16.3603 3.28033 16.2197C3.13968 16.079 2.94891 16 2.75 16Z" fill="#362C11"/>
</svg>
