<svg width="27" height="22" viewBox="0 0 27 22" fill="none" xmlns="http://www.w3.org/2000/svg">
<path d="M26.28 17.2013C26.4205 17.3419 26.4993 17.5325 26.4993 17.7313C26.4993 17.93 26.4205 18.1207 26.28 18.2613L23.28 21.2613C23.1378 21.3938 22.9498 21.4659 22.7555 21.4625C22.5612 21.459 22.3758 21.3803 22.2384 21.2429C22.101 21.1055 22.0223 20.9201 22.0188 20.7258C22.0154 20.5315 22.0875 20.3435 22.22 20.2013L23.94 18.4813H17.75C17.6307 18.4813 17.5131 18.4528 17.407 18.3982C17.3009 18.3437 17.2094 18.2646 17.14 18.1675L7.36375 4.48129H0.75C0.551088 4.48129 0.360322 4.40227 0.21967 4.26162C0.0790175 4.12097 0 3.9302 0 3.73129C0 3.53238 0.0790175 3.34161 0.21967 3.20096C0.360322 3.06031 0.551088 2.98129 0.75 2.98129H7.75C7.8693 2.9813 7.98688 3.00977 8.09297 3.06434C8.19906 3.11891 8.29061 3.198 8.36 3.29504L18.1362 16.9813H23.94L22.22 15.2613C22.0875 15.1191 22.0154 14.9311 22.0188 14.7368C22.0223 14.5425 22.101 14.3571 22.2384 14.2197C22.3758 14.0823 22.5612 14.0035 22.7555 14.0001C22.9498 13.9967 23.1378 14.0688 23.28 14.2013L26.28 17.2013ZM14.7712 7.90129C14.8514 7.95851 14.9421 7.99937 15.0381 8.02154C15.1341 8.04372 15.2335 8.04676 15.3306 8.03051C15.4278 8.01426 15.5208 7.97903 15.6043 7.92683C15.6879 7.87463 15.7603 7.80649 15.8175 7.72629L18.1362 4.47629H23.94L22.22 6.20129C22.1463 6.26995 22.0872 6.35275 22.0462 6.44475C22.0052 6.53675 21.9832 6.63607 21.9814 6.73677C21.9796 6.83747 21.9982 6.9375 22.0359 7.03089C22.0736 7.12428 22.1297 7.20911 22.201 7.28033C22.2722 7.35155 22.357 7.40769 22.4504 7.44541C22.5438 7.48314 22.6438 7.50166 22.7445 7.49988C22.8452 7.49811 22.9445 7.47606 23.0365 7.43507C23.1285 7.39408 23.2113 7.33498 23.28 7.26129L26.28 4.26129C26.4205 4.12067 26.4993 3.93004 26.4993 3.73129C26.4993 3.53254 26.4205 3.34192 26.28 3.20129L23.28 0.201292C23.1378 0.0688116 22.9498 -0.00331137 22.7555 0.000116847C22.5612 0.00354506 22.3758 0.0822568 22.2384 0.21967C22.101 0.357083 22.0223 0.542468 22.0188 0.736769C22.0154 0.93107 22.0875 1.11912 22.22 1.26129L23.94 2.98129H17.75C17.6307 2.9813 17.5131 3.00977 17.407 3.06434C17.3009 3.11891 17.2094 3.198 17.14 3.29504L14.5975 6.85629C14.4822 7.01799 14.4358 7.21881 14.4683 7.41471C14.5009 7.61062 14.6098 7.7856 14.7712 7.90129ZM10.7288 13.5613C10.6486 13.5041 10.5579 13.4632 10.4619 13.441C10.3659 13.4189 10.2665 13.4158 10.1694 13.4321C10.0722 13.4483 9.97922 13.4836 9.89568 13.5358C9.81214 13.5879 9.7397 13.6561 9.6825 13.7363L7.36375 16.9813H0.75C0.551088 16.9813 0.360322 17.0603 0.21967 17.201C0.0790175 17.3416 0 17.5324 0 17.7313C0 17.9302 0.0790175 18.121 0.21967 18.2616C0.360322 18.4023 0.551088 18.4813 0.75 18.4813H7.75C7.8693 18.4813 7.98688 18.4528 8.09297 18.3982C8.19906 18.3437 8.29061 18.2646 8.36 18.1675L10.9025 14.6063C11.0178 14.4446 11.0642 14.2438 11.0317 14.0479C10.9991 13.852 10.8902 13.677 10.7288 13.5613Z" fill="#362C11"/>
</svg>
