<svg width="68" height="40" viewBox="0 0 68 40" fill="none" xmlns="http://www.w3.org/2000/svg">
<g clip-path="url(#clip0_1162_3247)">
<path d="M4.16797 36.3412C3.99948 36.2615 3.72457 36.1463 3.36098 36.1463C2.95305 36.1463 2.75796 36.3412 2.75796 36.5715C2.75796 36.8285 2.94418 36.9525 3.51174 37.2094C4.24778 37.5372 4.5493 37.989 4.5493 38.5649C4.5493 39.4065 3.9108 40.0001 2.79343 40.0001C2.33229 40.0001 1.87115 39.8849 1.65832 39.7609L1.83568 38.875C2.07512 38.999 2.46531 39.1142 2.83777 39.1142C3.28117 39.1142 3.494 38.9193 3.494 38.6535C3.494 38.3877 3.28117 38.2194 2.81116 38.0068C2.08399 37.6701 1.71153 37.2183 1.71153 36.669C1.71153 35.8894 2.30569 35.2781 3.37872 35.2781C3.82212 35.2781 4.1591 35.3755 4.3808 35.4818L4.18571 36.3501L4.16797 36.3412Z" fill="#362C11"/>
<path d="M9.22274 37.5727C9.22274 39.1763 8.44236 40.0002 7.28065 40.0002C6.01252 40.0002 5.39176 38.9016 5.39176 37.6436C5.39176 36.3856 6.11007 35.2693 7.35159 35.2693C8.69066 35.2693 9.23161 36.4564 9.23161 37.5727H9.22274ZM6.49139 37.6259C6.49139 38.503 6.78404 39.1408 7.31612 39.1408C7.8482 39.1408 8.12311 38.5118 8.12311 37.6082C8.12311 36.802 7.85707 36.1286 7.31612 36.1286C6.77517 36.1286 6.49139 36.8285 6.49139 37.6259Z" fill="#362C11"/>
<path d="M13.6302 39.761C13.3552 39.8585 12.8232 39.9825 12.3266 39.9825C11.5994 39.9825 11.0762 39.7876 10.7037 39.4332C10.2869 39.0345 10.0741 38.3967 10.0741 37.6791C10.0741 36.0932 11.156 35.2959 12.4507 35.2959C12.9296 35.2959 13.3109 35.3845 13.5149 35.4819L13.3198 36.3502C13.1158 36.2616 12.8675 36.1996 12.4773 36.1996C11.7413 36.1996 11.1737 36.6337 11.1737 37.6791C11.1737 38.6536 11.6792 39.1231 12.3088 39.1231C12.4596 39.1231 12.5749 39.1143 12.6369 39.0788V38.1132H12.0871V37.2893H13.6213V39.761H13.6302Z" fill="#362C11"/>
<path d="M18.2061 39.9382H17.1242L16.8581 38.8662H15.7939L15.5456 39.9382H14.4815L15.6964 35.3313H17.0266L18.2061 39.9382ZM16.7251 38.0688L16.5211 37.1475C16.459 36.8728 16.3792 36.4653 16.326 36.1818H16.3172C16.2551 36.4653 16.1841 36.8817 16.1309 37.1475L15.9181 38.0688H16.7251Z" fill="#362C11"/>
<path d="M22.6135 39.9382H21.567L20.76 38.2637C20.5472 37.8208 20.2812 37.2183 20.1127 36.7488H20.0861C20.1127 37.2892 20.1393 37.9891 20.1393 38.813V39.947H19.1993V35.3402H20.3166L21.1059 36.988C21.3187 37.3955 21.567 37.9891 21.7355 38.4498H21.7444C21.6912 37.9094 21.6557 37.1918 21.6557 36.4299V35.3313H22.5957V39.9382H22.6135Z" fill="#362C11"/>
<path d="M27.2514 39.761C26.9765 39.8585 26.4444 39.9825 25.9478 39.9825C25.2207 39.9825 24.6974 39.7876 24.325 39.4332C23.9082 39.0345 23.6954 38.3967 23.6954 37.6791C23.6954 36.0932 24.7773 35.2959 26.072 35.2959C26.5509 35.2959 26.9322 35.3845 27.1361 35.4819L26.9411 36.3502C26.7371 36.2616 26.4888 36.1996 26.0986 36.1996C25.3625 36.1996 24.795 36.6337 24.795 37.6791C24.795 38.6536 25.3005 39.1231 25.9301 39.1231C26.0809 39.1231 26.1961 39.1143 26.2582 39.0788V38.1132H25.7084V37.2893H27.2426V39.761H27.2514Z" fill="#362C11"/>
<path d="M33.4768 38.0068C33.4768 39.3269 32.8826 40.0002 31.7741 40.0002C30.6656 40.0002 30.1158 39.318 30.1158 37.9891V35.3313H31.1622V38.1131C31.1622 38.8219 31.4017 39.132 31.7919 39.132C32.1821 39.132 32.4215 38.8485 32.4215 38.1131V35.3313H33.4679V37.998L33.4768 38.0068Z" fill="#362C11"/>
<path d="M38.1502 39.9382H37.1038L36.2968 38.2637C36.084 37.8208 35.8179 37.2183 35.6495 36.7488H35.6228C35.6583 37.2892 35.6761 37.9891 35.6761 38.813V39.947H34.736V35.3402H35.8534L36.6427 36.988C36.8555 37.3955 37.1038 37.9891 37.2723 38.4498H37.2812C37.228 37.9094 37.1925 37.1918 37.1925 36.4299V35.3313H38.1325V39.9382H38.1502Z" fill="#362C11"/>
<path d="M39.445 35.3313H40.4914V39.9382H39.445V35.3313Z" fill="#362C11"/>
<path d="M45.2181 35.3313L43.8967 39.9382H42.6818L41.3959 35.3402H42.5576L42.9922 37.2626C43.1075 37.7765 43.2227 38.308 43.3114 38.8662H43.3292C43.409 38.3169 43.5243 37.7853 43.6484 37.2626L44.0829 35.3402H45.2181V35.3313Z" fill="#362C11"/>
<path d="M48.7298 39.9382H46.1137V35.3313H48.6411V36.2084H47.1601V37.1297H48.5613V37.9891H47.1601V39.0611H48.7298V39.9382Z" fill="#362C11"/>
<path d="M52.1528 37.7853C52.4721 37.9093 52.6317 38.2106 52.7381 38.6535C52.8534 39.1497 52.9864 39.7609 53.0751 39.9381H51.9932C51.9311 39.8052 51.8159 39.3977 51.7094 38.8573C51.6119 38.2992 51.4434 38.1485 51.0975 38.1485H50.8936V39.9381H49.8472V35.4021C50.1664 35.349 50.6187 35.3047 51.0975 35.3047C51.7094 35.3047 52.9155 35.3667 52.9155 36.6336C52.9155 37.174 52.5785 37.5993 52.1528 37.7676V37.7942V37.7853ZM51.1685 37.3689C51.6119 37.3689 51.8691 37.0943 51.8691 36.7222C51.8691 36.1995 51.4789 36.0932 51.2394 36.0932C51.0709 36.0932 50.9557 36.102 50.9025 36.1198V37.3601H51.1774L51.1685 37.3689Z" fill="#362C11"/>
<path d="M56.374 36.3412C56.2055 36.2615 55.9306 36.1463 55.567 36.1463C55.1591 36.1463 54.964 36.3412 54.964 36.5715C54.964 36.8285 55.1502 36.9525 55.7178 37.2094C56.4538 37.5372 56.7554 37.989 56.7554 38.5649C56.7554 39.4065 56.1169 40.0001 54.9995 40.0001C54.5383 40.0001 54.0772 39.8849 53.8644 39.7609L54.0417 38.875C54.29 38.999 54.6714 39.1142 55.0438 39.1142C55.4872 39.1142 55.7001 38.9193 55.7001 38.6535C55.7001 38.3877 55.4872 38.2194 55.0172 38.0068C54.29 37.6701 53.9176 37.2183 53.9176 36.669C53.9176 35.8894 54.5117 35.2781 55.5848 35.2781C56.0282 35.2781 56.3652 35.3755 56.5869 35.4818L56.3918 36.3501L56.374 36.3412Z" fill="#362C11"/>
<path d="M57.8106 35.3313H58.8571V39.9382H57.8106V35.3313Z" fill="#362C11"/>
<path d="M62.9718 36.2527H61.9165V39.9382H60.8701V36.2527H59.8237V35.3313H62.9718V36.2527Z" fill="#362C11"/>
<path d="M67.1132 35.3313L65.8096 38.0866V39.9382H64.7632V38.1309L63.495 35.3402H64.6656L65.0381 36.421C65.1445 36.7399 65.2332 37.0234 65.3219 37.3424H65.3307C65.4105 37.0412 65.4992 36.7488 65.6056 36.421L65.9515 35.349H67.1043L67.1132 35.3313Z" fill="#362C11"/>
<path d="M12.1581 14.6179H9.31142L8.61085 11.8006H5.82629L5.17006 14.6179H2.3855L5.56912 2.5249H9.06312L12.1581 14.6091V14.6179ZM8.27387 9.7187L7.74178 7.29124C7.58216 6.57363 7.37819 5.49279 7.22744 4.75746H7.20083C7.04121 5.49279 6.83725 6.60021 6.69536 7.29124L6.14554 9.7187H8.27387Z" fill="#362C11"/>
<path d="M16.7783 6.73306C17.6119 7.06086 18.0287 7.84048 18.3125 9.00106C18.6228 10.2945 18.9687 11.9069 19.2081 12.3765H16.3615C16.2019 12.031 15.8915 10.9501 15.6255 9.53262C15.3594 8.06197 14.9338 7.67216 14.0115 7.67216H13.4794V12.3765H10.7392V0.469498C11.5816 0.327748 12.7611 0.221436 14.0115 0.221436C15.6255 0.221436 18.7825 0.389763 18.7825 3.71202C18.7825 5.13838 17.8868 6.2458 16.7783 6.67991V6.74192V6.73306ZM14.1977 5.64336C15.3594 5.64336 16.0334 4.92575 16.0334 3.94237C16.0334 2.56917 15.0136 2.30338 14.3751 2.30338C13.9405 2.30338 13.639 2.33882 13.4883 2.38312V5.65222H14.2066L14.1977 5.64336Z" fill="#362C11"/>
<path d="M26.0897 5.18269H23.3229V14.866H20.5649V5.18269H17.8247V2.77295H26.0897V5.18269Z" fill="#362C11"/>
<path d="M38.2212 6.09531C37.9463 8.0798 37.2634 9.85168 36.1904 11.0477C36.8378 11.8096 37.5827 12.7132 38.3631 13.6169H34.9223C34.7006 13.3423 34.47 13.0942 34.2128 12.7664C33.4324 13.3777 32.2796 13.8118 30.8696 13.8118C27.9343 13.8118 26.5243 12.0045 26.5243 10.02C26.5243 8.30129 27.4288 7.06984 28.9098 6.26364V6.19276C28.2624 5.44858 27.8988 4.42089 27.8988 3.49952C27.8988 1.72765 29.2379 -0.00878906 31.7387 -0.00878906C33.7517 -0.00878906 35.1972 1.22266 35.1972 3.11856C35.1972 4.40317 34.5853 5.55489 32.7141 6.64459V6.73318C33.3792 7.56596 34.1596 8.62908 34.7006 9.19608C35.1883 8.38102 35.4632 7.18501 35.5696 6.08645H38.23L38.2212 6.09531ZM32.8649 11.0123C32.12 10.2326 31.1268 8.99232 30.2045 7.86718C29.7522 8.23041 29.3709 8.78855 29.3709 9.55046C29.3709 10.6579 30.1335 11.5793 31.3573 11.5793C31.916 11.5793 32.4658 11.4021 32.8738 11.0034L32.8649 11.0123ZM30.6035 3.28689C30.6035 3.9602 30.8607 4.51834 31.4017 5.16508C32.2707 4.53606 32.6166 3.96906 32.6166 3.23374C32.6166 2.64016 32.3417 1.94913 31.6411 1.94913C30.9405 1.94913 30.5947 2.64016 30.5947 3.28689H30.6035Z" fill="#362C11"/>
<path d="M45.7235 3.69441H42.9567V13.3777H40.1987V3.69441H37.4585V1.28467H45.7235V3.69441Z" fill="#362C11"/>
<path d="M52.1528 15.3623H45.2801V3.26929H51.9134V5.56386H48.0292V7.99132H51.7094V10.2416H48.0292V13.0589H52.144V15.3534L52.1528 15.3623Z" fill="#362C11"/>
<path d="M58.3693 12.8728C57.9437 13.0588 57.0036 13.2803 55.8153 13.2803C51.9843 13.2803 50.1664 10.6048 50.1664 7.25593C50.1664 2.92371 52.9864 0.877197 56.0991 0.877197C57.3229 0.877197 58.1654 1.12526 58.5112 1.31131L58.0146 3.54386C57.6067 3.35782 57.0303 3.18063 56.2587 3.18063C54.5206 3.18063 53.0662 4.36778 53.0662 7.08761C53.0662 9.60366 54.3166 10.9148 56.2765 10.9148C56.9061 10.9148 57.6067 10.7908 58.0323 10.6313L58.3782 12.855L58.3693 12.8728Z" fill="#362C11"/>
<path d="M66.1288 15.3623H63.3709V10.4188H59.9567V15.3623H57.1987V3.26929H59.9567V7.94703H63.3709V3.26929H66.1288V15.3534V15.3623Z" fill="#362C11"/>
<path d="M14.7032 27.5261H11.963L9.85237 23.1318C9.28482 21.9712 8.60198 20.3943 8.15858 19.1451H8.09651C8.17632 20.5537 8.23839 22.3965 8.23839 24.5582V27.5261H5.76422V15.4419H8.7084L10.7746 19.7741C11.3245 20.855 11.9807 22.4053 12.433 23.6191H12.4684C12.3266 22.2104 12.229 20.3234 12.229 18.3212V15.4419H14.7032V27.5261Z" fill="#362C11"/>
<path d="M26.1873 22.308C26.1873 26.5162 24.1388 28.6868 21.0882 28.6868C17.7538 28.6868 16.1221 25.8075 16.1221 22.4941C16.1221 19.1807 18.0021 16.2571 21.2567 16.2571C24.7773 16.2571 26.1873 19.3667 26.1873 22.308ZM19.0219 22.4498C19.0042 24.7621 19.7934 26.4188 21.1857 26.4188C22.578 26.4188 23.2963 24.7621 23.2963 22.3966C23.2963 20.2881 22.5957 18.5162 21.1857 18.5162C19.7757 18.5162 19.0219 20.359 19.0219 22.4409V22.4498Z" fill="#362C11"/>
<path d="M34.3991 29.5107H27.6416V17.4265H30.3996V27.1807H34.4079V29.5107H34.3991Z" fill="#362C11"/>
<path d="M44.0741 20.0754C44.0741 24.2835 42.0256 26.4541 38.975 26.4541C35.6406 26.4541 34.0177 23.5748 34.0177 20.2614C34.0177 16.948 35.8978 14.0244 39.1523 14.0244C42.6729 14.0244 44.0829 17.134 44.0829 20.0754H44.0741ZM36.9087 20.2171C36.891 22.5294 37.6802 24.1861 39.0725 24.1861C40.4648 24.1861 41.1831 22.5294 41.1831 20.1639C41.1831 18.0554 40.4825 16.2835 39.0725 16.2835C37.6625 16.2835 36.9087 18.1263 36.9087 20.2082V20.2171Z" fill="#362C11"/>
<path d="M54.29 27.0565C53.5717 27.3222 52.1617 27.6323 50.8581 27.6323C48.9515 27.6323 47.5681 27.1273 46.6015 26.1971C45.5018 25.1517 44.9431 23.4773 44.9431 21.5814C44.9431 17.4086 47.7809 15.3267 51.1685 15.3267C52.4366 15.3267 53.4387 15.557 53.9708 15.8139L53.4564 18.0996C52.9244 17.8693 52.2681 17.6921 51.2483 17.6921C49.3062 17.6921 47.8341 18.835 47.8341 21.5814C47.8341 24.1417 49.1643 25.382 50.8226 25.382C51.2128 25.382 51.5232 25.3466 51.6828 25.2757V22.7419H50.2462V20.5714H54.2812V27.0653L54.29 27.0565Z" fill="#362C11"/>
<path d="M64.2932 16.1773L60.8612 23.3977V28.2615H58.1033V23.504L54.7866 16.1685H57.8727L58.8571 19.0035C59.1408 19.8362 59.3714 20.5804 59.6109 21.4132H59.6463C59.8503 20.6159 60.0809 19.8451 60.3646 18.9857L61.2692 16.1685H64.2932V16.1773Z" fill="#362C11"/>
<g opacity="0.7">
<path d="M0 26.906C8.71727 30.0511 18.8445 32.4254 33.7074 32.4785C48.9338 32.5317 59.3537 30.3612 68 27.1452V28.4475C60.6129 31.1319 50.264 33.8074 33.7783 33.7454C17.4434 33.6834 7.24517 30.937 0 28.2083V26.906Z" fill="#362C11"/>
</g>
</g>
<defs>
<clipPath id="clip0_1162_3247">
<rect width="68" height="40" fill="white"/>
</clipPath>
</defs>
</svg>
