<svg width="296" height="206" viewBox="0 0 296 206" fill="none" xmlns="http://www.w3.org/2000/svg">
<path d="M159.224 96.8591C140.041 98.2798 120.845 99.6491 101.671 101.125C62.299 104.155 31.8493 125.135 29.4872 150.801C27.5916 171.409 51.7896 189.445 91.8031 195.265C106.972 197.472 123.104 196.788 138.813 197.169C149.13 197.417 159.468 197.216 169.237 201.016C116.741 209.458 64.7595 209.561 23.5094 182.226C3.84715 169.197 -3.3374 149.847 6.74833 131.074C16.3933 113.124 25.9741 94.5912 62.8296 93.0593C94.8113 91.7285 126.553 86.2042 158.385 90.6801C158.663 92.7426 158.941 94.8051 159.22 96.8633L159.224 96.8591Z" fill="#362C11"/>
<path d="M295.828 104.638C258.159 105.815 225.72 106.834 191.432 107.908C188.899 133.124 184.247 157.147 200.011 179.749C206.528 189.094 216.935 194.593 229.768 193.998C241.176 193.472 249.52 186.775 252.361 177.909C255.84 167.048 255.493 155.837 247.038 144.84C241.574 146.402 236.888 148.482 231.997 148.91C228.112 149.252 222.108 148.61 220.427 146.53C218.48 144.121 218.985 139.196 220.615 136.175C225.159 127.745 241.116 122.85 251.754 125.841C274.334 132.191 284.257 152.551 273.025 169.907C269.469 175.401 265.066 180.51 261.326 185.928C248.335 204.764 226.935 206.745 204.509 204.079C198.398 203.352 190.268 197.793 188.278 192.971C182.993 180.172 178.971 166.698 177.401 153.253C175.604 137.874 176.986 122.238 176.986 106.423C159.591 98.9387 138.273 107.356 122.428 95.246C129.925 86.2985 140.477 89.0284 149.429 88.7374C177.148 87.826 184.418 77.3039 170.674 56.8457C168.5 53.6107 165.706 50.5726 162.664 47.8554C156.361 42.2327 152.561 35.1081 159.514 29.6609C164.85 25.4802 174.149 23.2081 181.8 23.0113C191.021 22.7716 193.374 30.5552 194.098 36.593C195.279 46.4605 195.339 56.4863 194.868 66.4137C193.828 88.3395 196.229 91.2707 222.656 92.9652C233.841 93.6841 245.228 92.9995 256.456 92.2506C269.871 91.352 281.416 94.0906 295.832 104.647L295.828 104.638Z" fill="#362C11"/>
<path d="M0 79.636C4.76686 49.7853 18.768 26.948 33.7874 5.60832C37.6942 0.0583921 49.4274 -1.0927 56.5563 0.931296C83.0479 8.45815 109.668 6.77223 136.395 6.41279C156.121 6.15177 156.374 7.17448 164.718 31.518C171.111 50.1661 178.158 68.4847 184.641 87.0901C185.339 89.0927 184.226 92.0196 183.443 99.2084C178.077 91.6259 174.453 86.9616 171.256 81.9038C161.201 65.9729 148.98 57.6501 131.393 58.2706C101.033 59.3361 70.6044 58.3091 40.2274 57.2779C23.8172 56.7216 8.90043 58.1636 0.00428323 79.6402L0 79.636ZM153.635 43.341C150.289 27.1619 142.227 24.4062 133.014 23.743C104.969 21.719 76.9288 19.6564 48.8754 17.8336C40.3087 17.2773 33.0129 19.7506 30.2829 33.9656C71.0237 42.7762 110.977 46.285 153.635 43.341Z" fill="#362C11"/>
</svg>
