<svg width="103" height="87" viewBox="0 0 103 87" fill="none" xmlns="http://www.w3.org/2000/svg">
<g clip-path="url(#clip0_2594_7086)">
<path d="M90.212 22.8201C91.869 20.063 94.5566 3.12756 84.8369 6.70614C78.161 9.16179 81.6356 20.0246 83.0372 22.0902C84.4389 24.1558 88.5549 25.5772 90.2149 22.8171L90.212 22.8201Z" fill="#F3F3EC"/>
<path d="M92.134 49.0453C87.9408 47.5352 81.5827 49.7279 79.7237 53.6966C79.0555 55.1179 78.6606 56.9619 79.5782 58.6167C80.4958 60.2716 82.6043 59.9731 84.1456 59.846C86.0877 59.6835 88.5466 57.0949 90.1354 58.0375C91.7242 58.9802 92.4428 67.9931 90.9877 73.1231C89.7998 77.3105 84.5762 81.0988 80.0504 81.2525C74.9604 81.4269 68.2519 79.3169 65.7366 74.8223C62.0661 68.268 61.7424 63.0464 62.0007 56.1079C62.173 51.5364 62.0869 44.1753 64.9585 41.2321C67.8302 38.2889 101.987 39.5566 102.765 38.2682C103.543 36.9798 101.637 34.403 97.6873 32.8427C94.9403 31.7582 89.7612 32.0478 87.5785 32.1748C83.124 32.4378 78.6071 32.6654 74.1794 32.231C68.7567 31.6991 64.6408 31.8232 62.7936 29.2966C62.0334 28.2535 61.5939 22.8191 60.406 17.1306C58.9242 10.0207 58.2619 4.5184 56.4623 2.41735C54.6627 0.316305 50.1577 -0.067853 46.9059 0.00897859C36.5893 0.254249 16.1312 0.901407 16.1312 0.901407C16.1312 0.901407 10.1355 0.877767 7.75084 5.11828C5.36619 9.35584 0.0772114 42.6564 0 61.6516C0 61.6634 0 61.6752 0 61.6841C0 61.9028 0.026727 65.7975 0.959203 69.3702C1.88871 72.9399 4.28523 77.4109 7.94089 80.3837C11.5966 83.3565 14.8988 84.0953 20.1314 84.8754C32.6782 86.743 50.8081 85.9983 50.8081 82.5468C50.8081 79.0953 37.005 80.4162 29.0671 79.3613C21.1292 78.3063 12.5647 76.0575 9.86524 65.0617C8.24974 58.4719 9.58312 55.0677 12.8587 50.6972C16.1342 46.3266 25.2927 46.4892 33.5216 46.4596C41.7506 46.4301 48.86 47.0418 50.1815 47.5589C51.503 48.076 52.8393 49.2935 53.0175 53.206C53.1957 57.1185 52.9136 60.4902 53.3976 65.3247C53.8817 70.1592 55.3368 74.8193 58.3926 79.4411C61.4484 84.0628 68.632 86.0249 74.3783 86.7755C83.1982 87.925 91.249 84.5238 95.261 81.0161C99.2731 77.5055 102.412 73.0374 102.932 68.2118C103.451 63.3862 101.034 52.2545 92.134 49.0482V49.0453ZM17.2894 12.2814C20.9867 10.331 43.4878 9.50359 46.603 10.3458C50.8764 11.5012 52.6047 29.9644 51.4673 34.069C50.3299 38.1736 16.7727 38.936 12.823 35.0058C8.87337 31.0755 13.5922 14.2317 17.2894 12.2814Z" fill="#F3F3EC"/>
</g>
<defs>
<clipPath id="clip0_2594_7086">
<rect width="103" height="87" fill="white"/>
</clipPath>
</defs>
</svg>
