<svg width="238" height="104" viewBox="0 0 238 104" fill="none" xmlns="http://www.w3.org/2000/svg">
<path d="M34.73 77.77H35.61C40.57 55.28 45.75 32.58 50.71 10.09H70.44V103.78H56.88V42.82H56C51.81 63.1 46.74 83.61 42.44 103.78L27.34 103.89L14.55 43.04H13.67V103.78H0V10.09H19.73L34.72 77.77H34.73Z" fill="#362C11"/>
<path d="M107.37 33.6699C123.46 33.6699 133.27 43.6999 133.27 59.2399V78.0899C133.27 93.6299 123.46 103.77 107.37 103.77H101.75C85.7699 103.77 75.96 93.6299 75.96 78.0899V59.2399C75.96 43.6999 85.7699 33.6699 101.75 33.6699H107.37ZM101.75 49.4399C96.0199 49.4399 91.61 53.7399 91.61 59.6899V77.6599C91.61 83.6099 96.0199 87.9099 101.75 87.9099H107.37C113.21 87.9099 117.51 83.6099 117.51 77.6599V59.6899C117.51 53.7399 113.21 49.4399 107.37 49.4399H101.75Z" fill="#362C11"/>
<path d="M160.23 0V87.13H137.57V0H160.23Z" fill="#362C11"/>
<path d="M202.17 77.77H203.05C208.01 55.28 213.19 32.58 218.15 10.09H237.88V103.78H224.32V42.82H223.44C219.25 63.1 214.18 83.61 209.88 103.78L194.78 103.89L181.99 43.04H181.11V103.78H167.44V10.09H187.17L202.16 77.77H202.17Z" fill="#362C11"/>
</svg>
