<svg width="151" height="30" viewBox="0 0 151 30" fill="none" xmlns="http://www.w3.org/2000/svg">
<g clip-path="url(#clip0_1162_3296)">
<mask id="mask0_1162_3296" style="mask-type:luminance" maskUnits="userSpaceOnUse" x="-65" y="-446" width="525" height="745">
<path d="M-64.3564 -445.091H459.715V298.122H-64.3564V-445.091Z" fill="white"/>
</mask>
<g mask="url(#mask0_1162_3296)">
<path d="M12.5912 7.72785C12.4406 6.67821 11.5743 4.88967 8.85133 4.8932C6.98316 4.8932 5.77969 6.08055 5.77969 7.31205C5.77969 8.40053 6.45494 9.19504 8 9.47312L11.0127 10.0478C15.2966 10.8467 17.5169 13.6019 17.5169 16.8188C17.5169 20.3597 14.5729 23.9553 9.21316 23.9553C2.99241 23.9553 0.316936 19.9086 0 16.7306L4.60614 15.6182C4.7963 17.6919 6.19082 19.5025 9.27215 19.5025C11.238 19.5025 12.4406 18.5509 12.4406 17.1525C12.4406 16.0111 11.5154 15.1813 10.0346 14.8829L6.95763 14.3082C3.13943 13.579 0.831078 11.0383 0.831078 7.6943C0.831078 3.43218 4.57093 0.441282 8.89006 0.441282C14.4981 0.441282 16.6268 3.8109 17.0961 6.45309L12.5912 7.72785Z" fill="#362C11"/>
<path d="M19.8737 23.4839V7.66514H24.4702V9.4731C25.2819 8.07652 27.3015 7.18402 29.0182 7.18402C31.2676 7.18402 32.8761 8.10654 33.6842 9.66908C34.9203 7.88496 36.4319 7.18402 38.558 7.18402C41.5469 7.18402 44.3932 8.93371 44.3932 13.2294V23.4839L39.7377 23.4777V14.3081C39.7377 12.8136 38.9357 11.6465 37.2278 11.6465C35.5225 11.6465 34.5937 12.9548 34.5937 14.3532V23.4777L29.8396 23.4839V14.3081C29.8396 12.8136 29.0482 11.6465 27.3015 11.6465C25.6191 11.6465 24.6956 12.9548 24.6956 14.3735V23.4839H19.8737Z" fill="#362C11"/>
<path d="M47.3663 7.65912H52.1978V23.4788H47.3663V7.65912ZM49.7433 2.28882e-05C51.3377 2.28882e-05 52.5993 1.27037 52.5993 2.82055C52.5993 4.38309 51.3377 5.66403 49.7433 5.66403C48.2273 5.66403 46.9464 4.38309 46.9464 2.82055C46.9464 1.27037 48.2273 2.28882e-05 49.7433 2.28882e-05Z" fill="#362C11"/>
<path d="M55.2202 0.441418H60.0517V23.4788H55.2202V0.441418Z" fill="#362C11"/>
<path d="M73.2751 13.6809C73.2099 12.4644 72.4044 10.9999 70.1163 10.9999C68.0817 10.9999 67.0737 12.4997 66.976 13.6809H73.2751ZM77.6699 18.9335C76.8934 21.6702 74.3993 23.9548 70.3892 23.9548C66.041 23.9548 62.1744 20.8359 62.1744 15.5206C62.1744 10.4305 65.9494 7.17826 70.0476 7.17826C74.9275 7.17826 77.9402 10.2054 77.9402 15.2955C77.9402 15.9717 77.8821 16.7018 77.846 16.7998H66.8782C66.976 18.5848 68.5906 19.8499 70.4587 19.8499C72.1993 19.8499 73.1774 19.0315 73.6272 17.7859L77.6699 18.9335Z" fill="#362C11"/>
<path d="M90.9092 15.1029C90.9092 12.9551 89.3642 11.6114 87.5347 11.6114C85.7353 11.6114 84.1506 12.9551 84.1506 15.1029C84.1506 17.2763 85.6182 18.6138 87.5347 18.6138C89.5006 18.6138 90.9092 17.2763 90.9092 15.1029ZM83.588 23.1707C83.8909 24.6944 85.1683 25.8023 86.9678 25.8023C89.3835 25.8023 90.874 24.6317 90.874 21.7583V21.0326C90.293 21.8898 88.9275 22.8114 86.6544 22.8114C82.4682 22.8114 79.3287 19.5027 79.3287 15.1029C79.3287 10.9343 82.3414 7.38464 86.6544 7.38464C89.2268 7.38464 90.5905 8.51196 91.0263 9.3462V7.66537H95.6333V21.5067C95.6333 26.0539 93.0899 30 87.202 30C82.6583 30 79.7689 27.2051 79.3287 24.3669L83.588 23.1707Z" fill="#362C11"/>
<path d="M106.19 19.7612C108.133 19.7612 109.786 18.2269 109.786 15.5539C109.786 12.8075 108.172 11.3818 106.19 11.3818C104.142 11.3818 102.587 12.8075 102.587 15.5539C102.587 18.1625 104.201 19.7612 106.19 19.7612ZM109.815 21.4544C109.13 22.9737 107.526 23.9192 105.564 23.9192C100.944 23.9192 97.7361 20.3986 97.7361 15.5203C97.7361 10.8071 100.738 7.17793 105.403 7.17793C108.23 7.17793 109.466 8.74753 109.786 9.47319V7.66523H114.451V20.6493C114.451 22.1148 114.539 23.1309 114.578 23.4778H109.936C109.893 23.1309 109.815 22.2719 109.815 21.601V21.4544Z" fill="#362C11"/>
<path d="M123.521 7.66516H126.588V11.9017H123.521V17.8155C123.521 19.1238 124.221 19.4672 125.268 19.4672C125.767 19.4672 126.246 19.3692 126.529 19.3065V23.3268C126.344 23.4195 125.551 23.769 124.02 23.769C120.759 23.769 118.754 21.8269 118.754 18.6727V11.9017L115.976 11.9052V7.66516H116.759C118.422 7.66516 119.204 6.54666 119.204 5.08564V3.04551H123.521V7.66516Z" fill="#362C11"/>
<path d="M138.804 13.6809C138.736 12.4644 137.924 10.9999 135.635 10.9999C133.614 10.9999 132.593 12.4997 132.485 13.6809H138.804ZM143.19 18.9335C142.423 21.6702 139.923 23.9548 135.919 23.9548C131.566 23.9548 127.703 20.8403 127.703 15.5206C127.703 10.4305 131.473 7.17826 135.576 7.17826C140.457 7.17826 143.47 10.2054 143.47 15.2955C143.47 15.9717 143.401 16.7018 143.381 16.7998H132.398C132.485 18.5848 134.119 19.8499 135.978 19.8499C137.723 19.8499 138.706 19.0315 139.156 17.7859L143.19 18.9335Z" fill="#362C11"/>
<path d="M148.097 5.8703C148.459 5.8703 148.663 5.69727 148.663 5.40153C148.663 5.08549 148.459 4.90894 148.097 4.90894H147.669V5.8703H148.097ZM147.669 7.61999H147.073V4.3775H148.187C148.811 4.3775 149.281 4.81889 149.281 5.39359C149.281 5.84293 148.989 6.2137 148.567 6.34082L149.298 7.61999H148.59L147.92 6.40968H147.669V7.61999ZM148.048 8.41185C149.34 8.41185 150.349 7.37457 150.349 6.01331C150.349 4.66529 149.34 3.62447 148.048 3.62447C146.765 3.62447 145.754 4.66529 145.754 6.01331C145.754 7.37457 146.765 8.41185 148.048 8.41185ZM148.048 3.04625C149.68 3.04625 151 4.38103 151 6.01331C151 7.66148 149.68 9.00244 148.048 9.00244C146.425 9.00244 145.116 7.66148 145.116 6.01331C145.116 4.38103 146.425 3.04625 148.048 3.04625Z" fill="#362C11"/>
</g>
</g>
<defs>
<clipPath id="clip0_1162_3296">
<rect width="151" height="30" fill="white"/>
</clipPath>
</defs>
</svg>
