<svg width="700" height="300" viewBox="0 0 700 300" fill="none" xmlns="http://www.w3.org/2000/svg">
<circle cx="22.5" cy="22.5" r="22.5" fill="black"/>
<circle cx="101.5" cy="22.5" r="22.5" fill="black"/>
<circle cx="180.5" cy="22.5" r="22.5" fill="black"/>
<circle cx="22.5" cy="101.5" r="22.5" fill="black"/>
<circle cx="101.5" cy="101.5" r="22.5" fill="black"/>
<circle cx="180.5" cy="101.5" r="22.5" fill="black"/>
<circle cx="269.5" cy="101.5" r="22.5" fill="black"/>
<circle cx="269.5" cy="22.5" r="22.5" fill="black"/>
<circle cx="347.5" cy="22.5" r="22.5" fill="black"/>
<circle cx="347.5" cy="101.5" r="22.5" fill="black"/>
<circle cx="269.5" cy="177.5" r="22.5" fill="black"/>
<circle cx="429.5" cy="22.5" r="22.5" fill="black"/>
<circle cx="517.5" cy="22.5" r="22.5" fill="black"/>
<circle cx="517.5" cy="101.5" r="22.5" fill="black"/>
<circle cx="517.5" cy="177.5" r="22.5" fill="black"/>
<circle cx="595.5" cy="177.5" r="22.5" fill="black"/>
<circle cx="677.5" cy="177.5" r="22.5" fill="black"/>
<circle cx="22.5" cy="177.5" r="22.5" fill="black"/>
<circle cx="101.5" cy="177.5" r="22.5" fill="black"/>
<circle cx="180.5" cy="177.5" r="22.5" fill="black"/>
<circle cx="429.5" cy="177.5" r="7.5" fill="black"/>
<circle cx="347.5" cy="177.5" r="7.5" fill="black"/>
<circle cx="429.5" cy="100.5" r="7.5" fill="black"/>
<circle cx="595.5" cy="100.5" r="7.5" fill="black"/>
<circle cx="676.5" cy="100.5" r="7.5" fill="black"/>
<circle cx="676.5" cy="22.5" r="7.5" fill="black"/>
<circle cx="595.5" cy="22.5" r="7.5" fill="black"/>
<g clip-path="url(#clip0_1998_8749)">
<path d="M40.96 253.296H32.128C32.032 252.528 32.032 251.76 32.032 251.472C32.032 247.92 31.84 246.672 30.688 244.848C29.056 242.256 26.752 241.104 23.296 241.104C17.92 241.104 14.752 244.368 14.752 249.84C14.752 253.68 16.192 256.368 19.744 259.056C21.088 260.112 21.088 260.112 28.384 264.048C38.08 269.328 41.344 274.032 41.344 282.576C41.344 293.808 34.816 299.952 22.912 299.952C10.24 299.952 4 293.904 4 281.328C4 280.656 4 279.216 4.096 277.776H13.12C13.12 283.056 13.312 284.688 13.792 286.608C14.944 290.736 18.016 292.848 22.816 292.848C28.96 292.848 32.512 289.2 32.512 283.056C32.512 277.392 29.824 274.32 21.088 269.712C9.376 263.472 5.92 259.056 5.92 250.32C5.92 239.856 12.16 234 23.296 234C31.264 234 37.024 236.976 39.424 242.448C40.576 244.944 40.96 247.632 40.96 253.296ZM49.7837 288.24C49.3037 285.456 49.1117 279.984 49.1117 264.912C49.1117 245.712 49.2077 244.752 51.2237 241.104C53.9117 236.4 59.5757 234 68.1197 234C76.3757 234 81.9438 236.784 84.4397 242.256C85.7837 245.232 86.0717 248.88 86.0717 265.968C86.0717 281.232 85.8797 286.704 85.2077 289.392C83.5757 295.92 77.0478 299.952 67.9277 299.952C57.7517 299.952 51.0317 295.632 49.7837 288.24ZM77.2397 282.96V256.176C77.2397 246.672 77.0478 246 75.4157 243.984C73.9757 242.16 71.0957 241.104 67.2557 241.104C62.6477 241.104 59.8637 242.64 58.7117 245.808C58.0397 247.536 57.9437 250.608 57.9437 264.72C57.9437 281.712 58.0397 285.648 58.7117 287.664C59.7677 290.928 63.1277 292.848 67.7357 292.848C74.3597 292.848 77.2397 289.968 77.2397 282.96ZM131.081 264.816V294.48C125.129 298.512 120.137 299.952 112.361 299.952C102.953 299.952 97.0967 296.496 95.0807 289.584C94.3127 287.088 94.2167 283.344 94.2167 266.928C94.2167 248.496 94.3127 246.192 95.9447 242.736C98.7287 236.688 104.201 234 113.417 234C120.905 234 125.705 236.304 128.681 241.2C130.409 243.984 131.081 247.344 131.081 252.624H122.249C122.153 248.4 121.769 246.48 120.809 244.848C119.369 242.448 116.681 241.104 112.937 241.104C107.177 241.104 104.009 243.792 103.241 249.264C103.145 250.224 103.049 257.904 103.049 266.736C103.049 280.56 103.241 285.264 103.721 287.28C104.681 290.832 108.041 292.848 112.937 292.848C116.489 292.848 119.945 291.888 122.249 290.448V272.304H112.073V264.816H131.081ZM137.176 298.992L154.84 234.96H165.688L183.16 298.992H174.232L170.488 284.784H149.368L145.624 298.992H137.176ZM151.192 277.296H168.856L160.312 241.2L151.192 277.296ZM189.143 298.992V234.96H202.967L215.639 272.976C216.023 274.032 216.407 275.952 218.615 282.864L219.383 285.264L220.535 289.584L221.303 291.888C221.207 290.64 221.111 289.392 221.111 289.104L220.823 285.936L220.631 279.312V234.96H228.695V298.992H215.639L200.759 254.448L199.127 248.592C198.839 247.728 198.455 246.288 197.975 244.272C197.975 244.176 197.591 242.832 197.207 241.584V243.792V245.52V248.208V252.336V298.992H189.143ZM274.646 264.816V294.48C268.694 298.512 263.702 299.952 255.926 299.952C246.518 299.952 240.662 296.496 238.646 289.584C237.878 287.088 237.782 283.344 237.782 266.928C237.782 248.496 237.878 246.192 239.51 242.736C242.294 236.688 247.766 234 256.982 234C264.47 234 269.27 236.304 272.246 241.2C273.974 243.984 274.646 247.344 274.646 252.624H265.814C265.718 248.4 265.334 246.48 264.374 244.848C262.934 242.448 260.246 241.104 256.502 241.104C250.742 241.104 247.574 243.792 246.806 249.264C246.71 250.224 246.614 257.904 246.614 266.736C246.614 280.56 246.806 285.264 247.286 287.28C248.246 290.832 251.606 292.848 256.502 292.848C260.054 292.848 263.51 291.888 265.814 290.448V272.304H255.638V264.816H274.646ZM303.083 298.992V234.96H332.363V242.448H311.915V262.8H331.307V270.288H311.915V298.992H303.083ZM376.229 234.96V275.664C376.229 287.856 375.749 290.64 372.773 294.096C369.605 297.84 364.325 299.952 357.797 299.952C350.885 299.952 345.509 297.744 342.821 293.52C340.709 290.352 339.845 285.36 339.845 275.664V234.96H348.677V278.64C348.677 283.536 349.157 286.992 350.021 288.72C351.365 291.216 354.629 292.848 358.181 292.848C362.021 292.848 365.189 290.928 366.341 287.856C367.109 285.744 367.397 283.248 367.397 278.64V234.96H376.229ZM397.572 298.992V242.448H381.924V234.96H422.052V242.448H406.404V298.992H397.572ZM464.001 234.96V275.664C464.001 287.856 463.521 290.64 460.545 294.096C457.377 297.84 452.097 299.952 445.569 299.952C438.657 299.952 433.281 297.744 430.593 293.52C428.481 290.352 427.617 285.36 427.617 275.664V234.96H436.449V278.64C436.449 283.536 436.929 286.992 437.793 288.72C439.137 291.216 442.401 292.848 445.953 292.848C449.793 292.848 452.961 290.928 454.113 287.856C454.881 285.744 455.169 283.248 455.169 278.64V234.96H464.001ZM474.785 298.992V234.96H491.969C499.073 234.96 502.817 235.824 505.697 238.128C508.865 240.624 510.497 245.232 510.497 251.472C510.497 260.112 507.617 263.856 499.457 265.968C507.905 267.888 508.481 269.232 509.633 287.664C510.017 293.328 510.497 295.344 511.937 298.992H502.145C501.473 297.36 501.089 295.44 500.897 293.424C500.609 289.008 500.225 284.592 499.841 279.984C499.169 271.536 497.345 269.808 488.801 269.808H483.617V298.992H474.785ZM483.617 262.8H490.241C498.401 262.8 501.665 259.728 501.665 252.048C501.665 244.56 498.785 242.064 490.241 242.064H483.617V262.8ZM520.827 298.992V234.96H549.915V242.448H529.659V262.8H548.763V270.288H529.659V291.504H551.067V298.992H520.827ZM577.568 298.992V234.96H586.4V291.504H606.176V298.992H577.568ZM606.905 298.992L624.569 234.96H635.417L652.889 298.992H643.961L640.217 284.784H619.097L615.353 298.992H606.905ZM620.921 277.296H638.585L630.041 241.2L620.921 277.296ZM658.872 298.992V234.96H674.424C682.296 234.96 685.464 235.632 688.728 238.224C691.896 240.72 693.432 245.136 693.432 251.28C693.432 259.44 690.552 263.376 683.16 265.296C687 266.256 688.728 266.832 690.648 268.176C694.008 270.576 695.832 275.184 695.832 281.52C695.832 288.24 694.008 293.136 690.648 295.728C687.288 298.32 683.448 298.992 673.272 298.992H658.872ZM667.704 262.032H675C682.008 262.032 685.08 259.056 685.08 252.432C685.08 245.04 682.008 241.872 674.904 241.872H667.704V262.032ZM667.704 291.888H673.464C680.28 291.888 682.296 291.504 684.216 289.968C686.04 288.432 687 285.36 687 281.328C687 272.304 683.256 269.04 673.176 269.04H667.704V291.888Z" fill="black"/>
</g>
<defs>
<clipPath id="clip0_1998_8749">
<rect width="692" height="66" fill="white" transform="translate(4 234)"/>
</clipPath>
</defs>
</svg>
